<svg xmlns="http://www.w3.org/2000/svg" version="1.1" xmlns:xlink="http://www.w3.org/1999/xlink" width="1000" height="1000"><metadata><rdf:RDF xmlns:rdf="http://www.w3.org/1999/02/22-rdf-syntax-ns#" xmlns:dc="http://purl.org/dc/elements/1.1/"><rdf:Description><dc:creator>RealFaviconGenerator</dc:creator><dc:source>https://realfavicongenerator.net</dc:source></rdf:Description></rdf:RDF></metadata><g clip-path="url(#SvgjsClipPath1017)"><rect width="1000" height="1000" fill="#020617"></rect><g transform="matrix(0.6329113924050633,0,0,0.6329113924050633,150,266.4556962025316)"><svg xmlns="http://www.w3.org/2000/svg" width="1106" height="738" viewBox="0 0 1106 738"><g fill="#22c55e">
<path d="M 642.50 175.50 L 641.98 256.00 L 599.00 256.00 L 599.00 131.00 L 837.65 131.00 L 839.83 128.69 C841.02,127.41 842.00,126.06 842.00,125.69 C842.00,125.31 785.77,125.00 717.04,125.00 L 592.08 125.00 L 570.53 103.68 C558.68,91.95 548.69,82.61 548.33,82.93 C547.97,83.24 548.00,82.94 548.40,82.25 C548.97,81.26 588.08,81.00 738.67,81.00 C906.54,81.00 928.15,81.17 927.64,82.50 C927.32,83.32 913.44,100.94 896.78,121.65 C880.13,142.35 864.70,161.63 862.50,164.48 C860.30,167.33 857.54,170.86 856.36,172.33 L 854.22 174.99 ZM 447.54 161.02 C434.64,173.28 423.96,183.80 423.79,184.40 C423.58,185.19 407.50,185.43 367.25,185.24 L 311.00 184.98 L 311.00 138.00 L 391.00 138.00 C435.00,138.00 471.00,138.17 471.00,138.37 C471.00,138.58 460.44,148.77 447.54,161.02 Z"></path>
<path d="M 447.54 161.02 C460.44,148.77 471.00,138.58 471.00,138.37 C471.00,138.17 435.00,138.00 391.00,138.00 L 311.00 138.00 L 311.00 184.80 L 262.50 184.50 L 261.98 81.00 L 533.00 81.00 L 533.00 272.00 L 682.00 272.00 C763.95,272.00 831.00,272.25 831.00,272.56 C831.00,272.87 823.01,282.88 813.24,294.81 C803.47,306.74 786.48,327.85 775.49,341.71 L 755.50 366.93 L 644.25 366.96 L 533.00 367.00 L 533.00 672.00 L 478.57 672.00 C426.07,672.00 424.11,671.93 423.54,670.11 C423.21,669.07 423.04,559.61 423.16,426.86 L 423.39 185.50 L 391.28 185.30 C414.06,185.29 423.63,185.01 423.79,184.40 C423.96,183.80 434.64,173.28 447.54,161.02 ZM 848.10 536.25 L 831.50 557.00 L 690.25 557.00 C612.56,557.00 548.96,556.66 548.90,556.25 C548.81,555.50 548.85,411.16 548.95,392.75 L 549.00 383.00 L 592.00 383.00 L 592.00 513.00 L 815.76 513.00 L 818.43 509.50 L 821.10 506.00 L 599.00 506.00 L 599.00 383.00 L 641.98 383.00 L 642.50 462.50 L 774.76 462.75 L 907.03 463.01 L 885.86 489.25 C874.22,503.69 857.23,524.84 848.10,536.25 ZM 473.00 138.01 L 473.00 624.00 L 483.00 624.00 L 483.00 322.00 L 739.63 322.00 L 742.50 319.00 L 745.37 316.01 L 614.43 315.75 L 483.50 315.50 L 482.99 129.00 L 310.89 129.00 L 311.50 137.50 L 392.25 137.76 ZM 570.53 103.68 L 592.08 125.00 L 592.00 125.00 L 592.00 256.00 L 547.99 256.00 L 548.24 168.75 L 548.50 82.97 C549.89,83.74 559.39,92.65 570.53,103.68 ZM 548.50 82.18 L 548.50 81.50 L 564.92 81.48 C553.96,81.65 549.24,81.88 548.50,82.18 Z"></path>
</g></svg></g></g><defs><clipPath id="SvgjsClipPath1017"><rect width="1000" height="1000" x="0" y="0" rx="350" ry="350"></rect></clipPath></defs></svg>